<?xml version="1.0" encoding="UTF-8"?>
<svg width="886px" height="949px" viewBox="0 0 886 949" version="1.1" xmlns="http://www.w3.org/2000/svg" xmlns:xlink="http://www.w3.org/1999/xlink">
    <title>mastodon</title>
    <g id="Page-1" stroke="none" stroke-width="1" fill="none" fill-rule="evenodd">
        <g id="mastodon" transform="translate(0.555556, 0.000000)" fill="#000000" fill-rule="nonzero">
            <path d="M444.444444,0 C565.444444,1 682.444444,14 750.444444,46 C750.444444,46 884.444444,106 884.444444,312 C884.444444,312 886.444444,464 866.444444,569 C853.444444,636 749.444444,709 630.444444,723 C568.444444,731 507.444444,738 442.444444,735 C336.444444,730 252.444444,709 252.444444,709 C252.444444,720 252.444444,729 254.444444,739 C268.444444,844 358.444444,850 443.444444,853 C530.444444,856 607.444444,832 607.444444,832 C607.444444,832 610.444444,910 610.444444,910 C610.444444,910 550.444444,942 442.444444,948 C383.444444,951 309.444444,947 223.444444,924 C37.4444444,875 5.44444444,676 0.444444444,475 C-0.555555556,415 0.444444444,359 0.444444444,312 C0.444444444,106 135.444444,46 135.444444,46 C203.444444,14 319.444444,1 441.444444,0 C441.444444,0 444.444444,0 444.444444,0 M198.444444,206 C172.444444,236 159.444444,277 159.444444,328 C159.444444,328 159.444444,577 159.444444,577 C159.444444,577 257.444444,577 257.444444,577 C257.444444,577 257.444444,335 257.444444,335 C257.444444,284 279.444444,258 322.444444,258 C369.444444,258 393.444444,289 393.444444,350 C393.444444,350 393.444444,482 393.444444,482 C393.444444,482 491.444444,482 491.444444,482 C491.444444,482 491.444444,350 491.444444,350 C491.444444,289 515.444444,258 562.444444,258 C605.444444,258 627.444444,284 627.444444,335 C627.444444,335 627.444444,577 627.444444,577 C627.444444,577 725.444444,577 725.444444,577 C725.444444,577 725.444444,328 725.444444,328 C725.444444,277 712.444444,236 686.444444,206 C659.444444,176 624.444444,161 581.444444,161 C530.444444,161 492.444444,181 467.444444,219 C467.444444,219 442.444444,261 442.444444,261 C442.444444,261 417.444444,219 417.444444,219 C392.444444,181 354.444444,161 303.444444,161 C260.444444,161 225.444444,176 198.444444,206 C198.444444,206 198.444444,206 198.444444,206" id="path"></path>
        </g>
    </g>
</svg>